<svg width="50" height="50" viewBox="0 0 50 50" fill="none" xmlns="http://www.w3.org/2000/svg">
<path d="M25 4.16667C13.5 4.16667 4.16663 13.5 4.16663 25C4.16663 36.5 13.5 45.8333 25 45.8333C36.5 45.8333 45.8333 36.5 45.8333 25C45.8333 13.5 36.5 4.16667 25 4.16667ZM27.0833 11.0417L29.8958 9.0625C33.6644 10.2303 36.8973 12.6956 39.0208 16.0208L38.2083 18.8125L35.3958 19.7708L27.0833 13.9583V11.0417ZM20.1041 9.0625L22.9166 11.0417V13.9583L14.6041 19.7708L11.7916 18.8125L10.9791 16.0208C13.1149 12.707 16.3432 10.2453 20.1041 9.0625ZM14.75 35.6458L12.375 35.8542C9.76339 32.8416 8.32807 28.987 8.33329 25C8.33329 24.75 8.35413 24.5208 8.37496 24.2708L10.4583 22.75L13.3333 23.75L16.375 32.7917L14.75 35.6458ZM30.2083 40.8125C28.5625 41.3542 26.8125 41.6667 25 41.6667C23.1875 41.6667 21.4375 41.3542 19.7916 40.8125L18.3541 37.7083L19.6875 35.4167H30.3333L31.6666 37.7292L30.2083 40.8125ZM29.7291 31.25H20.2708L17.4583 22.875L25 17.5833L32.5625 22.875L29.7291 31.25ZM37.625 35.8542L35.25 35.6458L33.6041 32.7917L36.6458 23.75L39.5416 22.7708L41.625 24.2917C41.6458 24.5208 41.6666 24.75 41.6666 25C41.6666 29.1458 40.1458 32.9375 37.625 35.8542Z" fill="white"/>
</svg>
