<svg width="50" height="50" viewBox="0 0 50 50" fill="none" xmlns="http://www.w3.org/2000/svg">
<path d="M39.5833 18.75H36.3333C37.0625 17.5208 37.5 16.1042 37.5 14.5833C37.5 9.97916 33.7708 6.24999 29.1667 6.24999C28.4583 6.24999 27.7917 6.35416 27.125 6.52083C25.3645 5.03488 23.1371 4.21619 20.8333 4.20833C16.8958 4.20833 13.5208 6.52083 11.9375 9.85416C8.64583 10.9583 6.25 14.0417 6.25 17.7083C6.25 21.5833 8.91667 24.8125 12.5 25.75V43.75H35.4167V39.5833H39.5833C41.875 39.5833 43.75 37.7083 43.75 35.4167V22.9167C43.75 20.625 41.875 18.75 39.5833 18.75ZM14.5833 21.875C12.2917 21.875 10.4167 20 10.4167 17.7083C10.4167 15.9375 11.5625 14.375 13.2708 13.7917L14.9375 13.2292L15.6875 11.6458C16.6667 9.625 18.625 8.37499 20.8333 8.37499C22.4792 8.37499 23.7292 9.10416 24.4583 9.72916L26.0833 11.0833C26.0833 11.0833 27.4167 10.4167 29.1458 10.4167C31.4375 10.4167 33.3125 12.2917 33.3125 14.5833H27.0625C20.1458 14.5833 19.0625 21.875 14.5833 21.875ZM39.5833 35.4167H35.4167V22.9167H39.5833V35.4167Z" fill="white"/>
</svg>
