<svg width="50" height="50" viewBox="0 0 50 50" fill="none" xmlns="http://www.w3.org/2000/svg">
<g clip-path="url(#clip0)">
<path d="M32.2917 11.4583C34.5833 11.4583 36.4583 9.58333 36.4583 7.29167C36.4583 5 34.5833 3.125 32.2917 3.125C30 3.125 28.125 5 28.125 7.29167C28.125 9.58333 30 11.4583 32.2917 11.4583ZM10.4167 25C4.58333 25 0 29.5833 0 35.4167C0 41.25 4.58333 45.8333 10.4167 45.8333C16.25 45.8333 20.8333 41.25 20.8333 35.4167C20.8333 29.5833 16.25 25 10.4167 25ZM10.4167 42.7083C6.45833 42.7083 3.125 39.375 3.125 35.4167C3.125 31.4583 6.45833 28.125 10.4167 28.125C14.375 28.125 17.7083 31.4583 17.7083 35.4167C17.7083 39.375 14.375 42.7083 10.4167 42.7083ZM22.5 21.875L27.5 16.875L29.1667 18.5417C31.875 21.25 35.4167 22.9167 39.7917 22.9167V18.75C36.6667 18.75 34.1667 17.5 32.2917 15.625L28.3333 11.6667C27.2917 10.8333 26.25 10.4167 25 10.4167C23.75 10.4167 22.7083 10.8333 22.0833 11.6667L16.25 17.5C15.4167 18.3333 15 19.375 15 20.4167C15 21.6667 15.4167 22.7083 16.25 23.3333L22.9167 29.1667V39.5833H27.0833V26.6667L22.5 21.875ZM39.5833 25C33.75 25 29.1667 29.5833 29.1667 35.4167C29.1667 41.25 33.75 45.8333 39.5833 45.8333C45.4167 45.8333 50 41.25 50 35.4167C50 29.5833 45.4167 25 39.5833 25ZM39.5833 42.7083C35.625 42.7083 32.2917 39.375 32.2917 35.4167C32.2917 31.4583 35.625 28.125 39.5833 28.125C43.5417 28.125 46.875 31.4583 46.875 35.4167C46.875 39.375 43.5417 42.7083 39.5833 42.7083Z" fill="white"/>
</g>
<defs>
<clipPath id="clip0">
<rect width="50" height="50" fill="white"/>
</clipPath>
</defs>
</svg>
