<svg width="50" height="50" viewBox="0 0 50 50" fill="none" xmlns="http://www.w3.org/2000/svg">
<path d="M26.2688 4.6875L5.39609 10.4461C5.39609 10.4461 1.5625 10.3383 1.5625 14.4102C1.5625 16.0906 2.30781 17.343 2.30781 17.343L18.2094 43.9383C19.7297 46.3602 22.9586 44.8438 22.9586 44.8438L47.3422 32.9648L46.4297 32.0391C46.2148 30.9273 46.0898 28.8688 47.5992 27.3359C47.6328 27.3016 47.6391 27.2547 47.657 27.2117L48.4375 26.8984L26.2688 4.6875ZM7.82891 11.3953L25.8063 6.43594L45.6625 26.3297L22.857 35.4969L7.82891 11.3953ZM45.6344 29.7977C45.5836 30.157 45.5578 30.507 45.5633 30.8352L29.5563 38.4328L45.6203 31.6156C45.6359 31.7398 45.65 31.8648 45.6695 31.9773L25.15 41.8883L45.8313 32.7164L45.8438 32.7648L22.9586 43.7125C22.9477 43.7195 21.9031 44.275 20.8562 44.275C19.8219 44.275 19.1773 43.7438 18.8836 42.6516C18.1281 39.8453 22.4203 38.2547 22.4852 38.2313L46.2219 27.9617C46.0516 28.2742 45.9336 28.5922 45.8352 28.9094L30.7672 36.0023L45.6344 29.7977Z" fill="white"/>
<path d="M26.9165 9.75937L11.4915 14.3203L15.254 20.2391L31.1844 14.4055L26.9165 9.75937Z" fill="white"/>
</svg>
