<svg width="50" height="50" viewBox="0 0 50 50" fill="none" xmlns="http://www.w3.org/2000/svg">
<path d="M43.275 21.1562L40.425 12.6062C40.0115 11.3614 39.2163 10.2785 38.1523 9.51147C37.0883 8.7444 35.8096 8.33217 34.4979 8.33333H15.502C14.1904 8.33217 12.9117 8.7444 11.8476 9.51147C10.7836 10.2785 9.98839 11.3614 9.57496 12.6062L6.72496 21.1562C5.96709 21.4734 5.31988 22.0074 4.86468 22.6913C4.40949 23.3752 4.16662 24.1785 4.16663 25V35.4167C4.16663 36.9542 5.00829 38.2833 6.24996 39.0062V43.75C6.24996 44.3025 6.46945 44.8324 6.86015 45.2231C7.25085 45.6138 7.78076 45.8333 8.33329 45.8333H10.4166C10.9692 45.8333 11.4991 45.6138 11.8898 45.2231C12.2805 44.8324 12.5 44.3025 12.5 43.75V39.5833H37.5V43.75C37.5 44.3025 37.7194 44.8324 38.1101 45.2231C38.5009 45.6138 39.0308 45.8333 39.5833 45.8333H41.6666C42.2192 45.8333 42.7491 45.6138 43.1398 45.2231C43.5305 44.8324 43.75 44.3025 43.75 43.75V39.0062C44.382 38.6438 44.9074 38.1211 45.2731 37.4909C45.6389 36.8607 45.8321 36.1453 45.8333 35.4167V25C45.8333 24.1785 45.5904 23.3752 45.1352 22.6913C44.68 22.0074 44.0328 21.4734 43.275 21.1562ZM15.502 12.5H34.4958C35.3937 12.5 36.1895 13.0708 36.4729 13.925L38.777 20.8333H11.2229L13.525 13.925C13.6632 13.51 13.9285 13.149 14.2834 12.8932C14.6383 12.6375 15.0646 12.4999 15.502 12.5ZM11.4583 33.3333C11.0478 33.3332 10.6413 33.2522 10.2621 33.095C9.88287 32.9377 9.53834 32.7074 9.24815 32.417C8.95797 32.1266 8.72782 31.7819 8.57085 31.4026C8.41388 31.0233 8.33316 30.6168 8.33329 30.2062C8.33343 29.7957 8.41442 29.3893 8.57165 29.01C8.72887 28.6308 8.95925 28.2863 9.24963 27.9961C9.54 27.7059 9.88469 27.4758 10.264 27.3188C10.6433 27.1618 11.0499 27.0811 11.4604 27.0812C12.2895 27.0815 13.0845 27.4111 13.6705 27.9976C14.2566 28.584 14.5857 29.3793 14.5854 30.2083C14.5851 31.0374 14.2555 31.8324 13.669 32.4185C13.0826 33.0045 12.2874 33.3336 11.4583 33.3333ZM38.5416 33.3333C38.1311 33.3332 37.7246 33.2522 37.3454 33.095C36.9662 32.9377 36.6217 32.7074 36.3315 32.417C36.0413 32.1266 35.8112 31.7819 35.6542 31.4026C35.4972 31.0233 35.4165 30.6168 35.4166 30.2062C35.4168 29.7957 35.4978 29.3893 35.655 29.01C35.8122 28.6308 36.0426 28.2863 36.333 27.9961C36.6233 27.7059 36.968 27.4758 37.3473 27.3188C37.7267 27.1618 38.1332 27.0811 38.5437 27.0812C39.3728 27.0815 40.1678 27.4111 40.7538 27.9976C41.3399 28.584 41.669 29.3793 41.6687 30.2083C41.6684 31.0374 41.3388 31.8324 40.7524 32.4185C40.1659 33.0045 39.3707 33.3336 38.5416 33.3333Z" fill="white"/>
</svg>
