<svg width="52" height="50" viewBox="0 0 52 50" fill="none" xmlns="http://www.w3.org/2000/svg">
<g clip-path="url(#clip0)">
<path d="M45.1648 6.95564H13.814L13.5116 5.74596C13.1756 4.20026 12.4195 2.94018 11.2435 1.96572C10.0674 0.991259 8.67289 0.504028 7.05999 0.504028H2.12048C1.51564 0.504028 1.0116 0.705641 0.608379 1.10887C0.205153 1.51209 0.00354004 2.04973 0.00354004 2.72177C0.00354004 3.32661 0.205153 3.83064 0.608379 4.23387C1.0116 4.63709 1.51564 4.83871 2.12048 4.83871H7.05999C8.33687 4.83871 9.07612 5.40994 9.27773 6.55242L14.2172 32.3589C14.6205 33.7702 15.4101 34.9126 16.5862 35.7863C17.7623 36.6599 19.056 37.0968 20.4672 37.0968H40.8302C41.5022 37.0968 42.0398 36.8952 42.4431 36.4919C42.8463 36.0887 43.0479 35.5847 43.0479 34.9798C43.0479 33.5013 42.3086 32.7621 40.8302 32.7621H20.4672C19.5264 32.7621 18.8543 32.3589 18.4511 31.5524L18.2495 30.6452H39.8221C41.1662 30.6452 42.3927 30.2419 43.5015 29.4355C44.6104 28.629 45.3664 27.5874 45.7697 26.3105L51.6164 13.9113V13.4073C51.6164 11.5927 50.9948 10.0638 49.7515 8.82056C48.5082 7.57728 46.9793 6.95564 45.1648 6.95564ZM19.3584 26.3105H17.4431L14.6205 11.2903H19.3584V26.3105ZM27.9269 26.3105H23.6931V11.2903H27.9269V26.3105ZM36.5963 26.3105H32.2616V11.2903H36.5963V26.3105ZM41.939 24.5968V24.7984C41.7374 25.4704 41.3678 25.9073 40.8302 26.1089V11.2903H45.1648C46.3745 11.2903 47.0802 11.8616 47.2818 13.004L41.939 24.5968ZM25.81 43.5484C25.81 44.7581 25.39 45.7829 24.5499 46.623C23.7099 47.463 22.685 47.8831 21.4753 47.8831C20.3328 47.8831 19.3416 47.463 18.5015 46.623C17.6615 45.7829 17.2414 44.7581 17.2414 43.5484C17.2414 42.3387 17.6615 41.3138 18.5015 40.4738C19.3416 39.6337 20.3328 39.2137 21.4753 39.2137C22.685 39.2137 23.7099 39.6337 24.5499 40.4738C25.39 41.3138 25.81 42.3387 25.81 43.5484ZM43.0479 43.5484C43.0479 44.7581 42.6279 45.7829 41.7878 46.623C40.9478 47.463 39.9229 47.8831 38.7132 47.8831C37.5035 47.8831 36.4787 47.463 35.6386 46.623C34.7986 45.7829 34.3785 44.7581 34.3785 43.5484C34.3785 42.3387 34.7986 41.3138 35.6386 40.4738C36.4787 39.6337 37.5035 39.2137 38.7132 39.2137C39.9229 39.2137 40.9478 39.6337 41.7878 40.4738C42.6279 41.3138 43.0479 42.3387 43.0479 43.5484Z" fill="white"/>
</g>
<defs>
<clipPath id="clip0">
<rect width="51.62" height="50" fill="white"/>
</clipPath>
</defs>
</svg>
