<svg width="50" height="50" viewBox="0 0 50 50" fill="none" xmlns="http://www.w3.org/2000/svg">
<path fill-rule="evenodd" clip-rule="evenodd" d="M48.61 23.4025C46.405 11.0875 41.475 7.455 38.8525 7.455C34.76 7.455 33.71 10.4975 25 10.6C16.29 10.4975 15.24 7.455 11.1475 7.455C8.52505 7.455 3.59255 11.0875 1.38755 23.4025C0.130045 30.4325 -1.23495 40.9275 2.01755 42.1875C6.06504 43.755 7.43754 39.835 11.8825 36.5225C16.395 33.165 18.56 32.375 25 32.375C31.44 32.375 33.605 33.165 38.1175 36.5225C42.5625 39.8325 43.935 43.755 47.9825 42.1875C51.2351 40.9275 49.87 30.435 48.61 23.4025ZM15 25C13.674 25 12.4022 24.4732 11.4645 23.5355C10.5268 22.5979 10 21.3261 10 20C10 18.6739 10.5268 17.4021 11.4645 16.4645C12.4022 15.5268 13.674 15 15 15C16.3261 15 17.5979 15.5268 18.5356 16.4645C19.4733 17.4021 20 18.6739 20 20C20 21.3261 19.4733 22.5979 18.5356 23.5355C17.5979 24.4732 16.3261 25 15 25ZM32.5 25C31.837 25 31.2011 24.7366 30.7323 24.2678C30.2634 23.7989 30 23.163 30 22.5C30 21.837 30.2634 21.2011 30.7323 20.7322C31.2011 20.2634 31.837 20 32.5 20C33.1631 20 33.799 20.2634 34.2678 20.7322C34.7367 21.2011 35 21.837 35 22.5C35 23.163 34.7367 23.7989 34.2678 24.2678C33.799 24.7366 33.1631 25 32.5 25ZM37.5 20C36.837 20 36.2011 19.7366 35.7323 19.2678C35.2634 18.7989 35 18.163 35 17.5C35 16.837 35.2634 16.2011 35.7323 15.7322C36.2011 15.2634 36.837 15 37.5 15C38.1631 15 38.799 15.2634 39.2678 15.7322C39.7367 16.2011 40 16.837 40 17.5C40 18.163 39.7367 18.7989 39.2678 19.2678C38.799 19.7366 38.1631 20 37.5 20Z" fill="white"/>
</svg>
