<svg width="50" height="50" viewBox="0 0 50 50" fill="none" xmlns="http://www.w3.org/2000/svg">
<path d="M25 12.1562L24.5109 12.3047L4.97969 18.8484L0.539062 20.3125L3.125 21.1406V34.8125C2.19219 35.3547 1.5625 36.3437 1.5625 37.5C1.5625 38.3288 1.89174 39.1237 2.47779 39.7097C3.06384 40.2958 3.8587 40.625 4.6875 40.625C5.5163 40.625 6.31116 40.2958 6.89721 39.7097C7.48326 39.1237 7.8125 38.3288 7.8125 37.5C7.8125 36.3437 7.18281 35.3547 6.25 34.8125V22.2188L9.375 23.2422V31.25C9.375 32.5312 10.1562 33.5937 11.0844 34.3281C12.0125 35.0578 13.1656 35.5734 14.55 36.0359C17.3219 36.9578 20.975 37.5 25 37.5C29.025 37.5 32.6781 36.9594 35.45 36.0344C36.8344 35.5734 37.9875 35.0578 38.9156 34.3266C39.8438 33.5937 40.625 32.5312 40.625 31.25V23.2422L45.0203 21.7766L49.4609 20.3125L45.0188 18.8469L25.4875 12.3047L25 12.1562ZM25 15.4297L39.6484 20.3125L25 25.1953L10.3516 20.3125L25 15.4297ZM12.5 24.3172L24.5125 28.3203L25 28.4672L25.4891 28.3188L37.5 24.3156V31.25C37.5 31.2656 37.5063 31.4469 37.0109 31.8359C36.5172 32.2266 35.6313 32.7187 34.4719 33.1062C32.1563 33.8766 28.7422 34.375 25 34.375C21.2578 34.375 17.8438 33.8781 15.5266 33.1047C14.3703 32.7188 13.4828 32.225 12.9891 31.8359C12.4922 31.4453 12.5 31.2656 12.5 31.25V24.3156V24.3172Z" fill="white"/>
</svg>
