<svg width="50" height="50" viewBox="0 0 50 50" fill="none" xmlns="http://www.w3.org/2000/svg">
<path d="M6.25 27.0833H8.33334V41.6667C8.33334 43.9646 10.2021 45.8333 12.5 45.8333H37.5C39.7979 45.8333 41.6667 43.9646 41.6667 41.6667V27.0833H43.75C44.162 27.0832 44.5647 26.961 44.9072 26.7321C45.2497 26.5032 45.5167 26.1778 45.6743 25.7972C45.832 25.4166 45.8732 24.9977 45.7929 24.5937C45.7125 24.1896 45.5142 23.8184 45.2229 23.5271L26.4729 4.77708C26.2796 4.58344 26.05 4.42982 25.7973 4.32501C25.5445 4.22019 25.2736 4.16624 25 4.16624C24.7264 4.16624 24.4555 4.22019 24.2027 4.32501C23.95 4.42982 23.7204 4.58344 23.5271 4.77708L4.77709 23.5271C4.48582 23.8184 4.28747 24.1896 4.20712 24.5937C4.12677 24.9977 4.16803 25.4166 4.32567 25.7972C4.48332 26.1778 4.75028 26.5032 5.0928 26.7321C5.43532 26.961 5.83802 27.0832 6.25 27.0833ZM20.8333 41.6667V31.25H29.1667V41.6667H20.8333ZM25 9.19583L37.5 21.6958V31.25L37.5021 41.6667H33.3333V31.25C33.3333 28.9521 31.4646 27.0833 29.1667 27.0833H20.8333C18.5354 27.0833 16.6667 28.9521 16.6667 31.25V41.6667H12.5V21.6958L25 9.19583Z" fill="white"/>
</svg>
