<svg width="50" height="50" viewBox="0 0 50 50" fill="none" xmlns="http://www.w3.org/2000/svg">
<path d="M25 31.25C28.4583 31.25 31.2291 28.4583 31.2291 25L31.25 12.5C31.25 9.04167 28.4583 6.25 25 6.25C21.5416 6.25 18.75 9.04167 18.75 12.5V25C18.75 28.4583 21.5416 31.25 25 31.25ZM36.0416 25C36.0416 31.25 30.75 35.625 25 35.625C19.25 35.625 13.9583 31.25 13.9583 25H10.4166C10.4166 32.125 16.0833 37.9792 22.9166 39V45.8333H27.0833V39C33.9166 38 39.5833 32.125 39.5833 25H36.0416Z" fill="white"/>
</svg>
