<svg width="50" height="50" viewBox="0 0 50 50" fill="none" xmlns="http://www.w3.org/2000/svg">
<path fill-rule="evenodd" clip-rule="evenodd" d="M17.8344 42.8344C17.4923 43.1775 17.0751 43.4364 16.6157 43.5906L7.24068 46.7156C6.68989 46.9 6.0986 46.9273 5.53318 46.7943C4.96776 46.6614 4.45058 46.3734 4.0397 45.9629C3.62882 45.5523 3.34049 45.0354 3.20708 44.4701C3.07367 43.9047 3.10046 43.3134 3.28443 42.7625L6.40943 33.3875C6.56318 32.927 6.82211 32.5086 7.16568 32.1656L31.5188 7.8125C32.6909 6.6408 34.2803 5.98258 35.9376 5.98258C37.5948 5.98258 39.1843 6.6408 40.3563 7.8125L42.1876 9.64375C43.3592 10.8158 44.0175 12.4052 44.0175 14.0625C44.0175 15.7198 43.3592 17.3092 42.1876 18.4812L17.8344 42.8344ZM9.37506 34.375L33.7282 10.0219C34.3142 9.43603 35.1089 9.10691 35.9376 9.10691C36.7662 9.10691 37.5609 9.43603 38.1469 10.0219L39.9782 11.8531C40.564 12.4391 40.8931 13.2339 40.8931 14.0625C40.8931 14.8911 40.564 15.6858 39.9782 16.2719L15.6251 40.625L6.25006 43.75L9.37506 34.375Z" fill="white"/>
<path fill-rule="evenodd" clip-rule="evenodd" d="M30.7938 8C30.6486 7.85449 30.4762 7.73905 30.2864 7.66028C30.0965 7.58151 29.893 7.54096 29.6875 7.54096C29.482 7.54096 29.2785 7.58151 29.0887 7.66028C28.8988 7.73905 28.7264 7.85449 28.5813 8L18.2938 18.2969C18.0004 18.5903 17.6024 18.7551 17.1875 18.7551C16.7726 18.7551 16.3747 18.5903 16.0813 18.2969C15.7879 18.0035 15.623 17.6056 15.623 17.1906C15.623 16.7757 15.7879 16.3778 16.0813 16.0844L26.375 5.79375C26.8103 5.35816 27.3272 5.01261 27.8961 4.77686C28.465 4.5411 29.0748 4.41975 29.6906 4.41975C30.3065 4.41975 30.9163 4.5411 31.4852 4.77686C32.0541 5.01261 32.571 5.35816 33.0063 5.79375L33.9219 6.70625C34.2153 6.99923 34.3803 7.39677 34.3806 7.8114C34.3809 8.22603 34.2164 8.62379 33.9235 8.91719C33.6305 9.21059 33.2329 9.37558 32.8183 9.37587C32.4037 9.37616 32.0059 9.21173 31.7125 8.91875L30.7969 8.00313L30.7938 8Z" fill="white"/>
<path d="M41.5406 3.77188C42.1266 3.18603 42.9214 2.85692 43.75 2.85692C44.5786 2.85692 45.3734 3.18603 45.9594 3.77188L46.0531 3.86563C46.6227 4.4351 46.9504 5.2025 46.9679 6.00774C46.9853 6.81297 46.6912 7.59386 46.1469 8.1875L42.1875 12.5L37.5 7.8125L41.5406 3.77188Z" fill="white"/>
</svg>
