<svg width="50" height="50" viewBox="0 0 50 50" fill="none" xmlns="http://www.w3.org/2000/svg">
<path d="M28.1042 11.4167C30.3959 11.4167 32.2709 9.54166 32.2709 7.24999C32.2709 4.95833 30.3959 3.08333 28.1042 3.08333C25.8125 3.08333 23.9375 4.95833 23.9375 7.24999C23.9375 9.54166 25.8125 11.4167 28.1042 11.4167ZM20.6042 40.375L22.6875 31.2083L27.0625 35.375V47.875H31.2292V32.25L26.8542 28.0833L28.1042 21.8333C30.8125 24.9583 34.9792 27.0417 39.5625 27.0417V22.875C35.6042 22.875 32.2709 20.7917 30.6042 17.875L28.5209 14.5417C27.6875 13.2917 26.4375 12.4583 24.9792 12.4583C24.3542 12.4583 23.9375 12.6667 23.3125 12.6667L12.4792 17.25V27.0417H16.6459V19.9583L20.3959 18.5L17.0625 35.375L6.85421 33.2917L6.02087 37.4583L20.6042 40.375Z" fill="white"/>
</svg>
