<svg width="50" height="50" viewBox="0 0 50 50" fill="none" xmlns="http://www.w3.org/2000/svg">
<path d="M13.575 29.8396L10.4708 43.2812C10.3747 43.6883 10.4036 44.1148 10.5536 44.5052C10.7037 44.8955 10.968 45.2316 11.312 45.4694C11.656 45.7072 12.0638 45.8358 12.482 45.8383C12.9002 45.8407 13.3094 45.717 13.6563 45.4833L25 37.9208L36.3438 45.4833C36.6986 45.7189 37.1171 45.8402 37.543 45.8309C37.9689 45.8216 38.3816 45.682 38.7258 45.4311C39.07 45.1801 39.3291 44.8298 39.4683 44.4272C39.6074 44.0246 39.62 43.5891 39.5042 43.1792L35.6938 29.8458L45.1438 21.3417C45.4464 21.0691 45.6626 20.7139 45.7655 20.3198C45.8684 19.9258 45.8535 19.5102 45.7227 19.1245C45.5919 18.7388 45.351 18.3998 45.0296 18.1496C44.7082 17.8994 44.3206 17.7489 43.9146 17.7167L32.0375 16.7708L26.8979 5.39375C26.734 5.02741 26.4676 4.71633 26.1309 4.49804C25.7941 4.27976 25.4013 4.16361 25 4.16361C24.5987 4.16361 24.2059 4.27976 23.8692 4.49804C23.5324 4.71633 23.266 5.02741 23.1021 5.39375L17.9625 16.7708L6.08543 17.7146C5.68638 17.7462 5.30488 17.8921 4.98659 18.1349C4.66829 18.3776 4.42667 18.7069 4.29062 19.0834C4.15458 19.4599 4.12988 19.8676 4.21948 20.2577C4.30908 20.6479 4.50918 21.0039 4.79585 21.2833L13.575 29.8396ZM19.5188 20.8271C19.8906 20.7978 20.2478 20.669 20.5527 20.4542C20.8577 20.2394 21.0993 19.9465 21.2521 19.6063L25 11.3125L28.7479 19.6063C28.9008 19.9465 29.1423 20.2394 29.4473 20.4542C29.7523 20.669 30.1094 20.7978 30.4813 20.8271L38.7563 21.4833L31.9417 27.6167C31.35 28.15 31.1146 28.9708 31.3313 29.7375L33.9417 38.8729L26.1583 33.6833C25.8167 33.454 25.4146 33.3316 25.0031 33.3316C24.5917 33.3316 24.1896 33.454 23.8479 33.6833L15.7146 39.1063L17.9021 29.6354C17.9823 29.2871 17.9715 28.924 17.8708 28.581C17.7701 28.238 17.5829 27.9268 17.3271 27.6771L10.9979 21.5063L19.5188 20.8271Z" fill="white"/>
</svg>
