<svg width="50" height="50" viewBox="0 0 50 50" fill="none" xmlns="http://www.w3.org/2000/svg">
<path d="M41.7 24.425C40.1133 26.0151 38.0906 27.099 35.8879 27.5395C33.6852 27.9801 31.4012 27.7575 29.325 26.9L15.8 43.2C13.325 45.675 9.32499 45.675 6.84999 43.2C4.37499 40.725 4.37499 36.725 6.84999 34.275L23.15 20.725C21.45 16.6 22.275 11.7 25.625 8.35C28.825 5.15 33.425 4.3 37.425 5.7L30.2 12.925L37.25 19.975L44.4 12.8C45.725 16.75 44.85 21.275 41.7 24.425ZM9.52499 40.525C10.525 41.5 12.125 41.5 13.1 40.525C14.1 39.525 14.1 37.925 13.1 36.95C12.125 35.95 10.525 35.95 9.52499 36.95C9.05626 37.4269 8.7936 38.0688 8.7936 38.7375C8.7936 39.4062 9.05626 40.0481 9.52499 40.525Z" fill="white"/>
</svg>
